<svg width="21" height="20" viewBox="0 0 21 20" fill="none" xmlns="http://www.w3.org/2000/svg">
<g clip-path="url(#clip0_718_26)">
<path d="M18.25 4.16667C17.325 3.875 16.3083 3.75 15.3333 3.75C13.7083 3.75 11.9583 4.08333 10.75 5C9.54168 4.08333 7.79168 3.75 6.16668 3.75C4.54168 3.75 2.79168 4.08333 1.58334 5V17.2083C1.58334 17.4167 1.79168 17.625 2.00001 17.625C2.08334 17.625 2.12501 17.5833 2.20834 17.5833C3.33334 17.0417 4.95834 16.6667 6.16668 16.6667C7.79168 16.6667 9.54168 17 10.75 17.9167C11.875 17.2083 13.9167 16.6667 15.3333 16.6667C16.7083 16.6667 18.125 16.9167 19.2917 17.5417C19.375 17.5833 19.4167 17.5833 19.5 17.5833C19.7083 17.5833 19.9167 17.375 19.9167 17.1667V5C19.4167 4.625 18.875 4.375 18.25 4.16667ZM18.25 15.4167C17.3333 15.125 16.3333 15 15.3333 15C13.9167 15 11.875 15.5417 10.75 16.25V6.66667C11.875 5.95833 13.9167 5.41667 15.3333 5.41667C16.3333 5.41667 17.3333 5.54167 18.25 5.83333V15.4167Z" fill="#484848"/>
<path d="M15.3333 8.75C16.0667 8.75 16.775 8.825 17.4167 8.96667V7.7C16.7583 7.575 16.05 7.5 15.3333 7.5C13.9167 7.5 12.6333 7.74167 11.5833 8.19167V9.575C12.525 9.04167 13.8333 8.75 15.3333 8.75Z" fill="#484848"/>
<path d="M11.5833 10.4083V11.7917C12.525 11.2583 13.8333 10.9667 15.3333 10.9667C16.0667 10.9667 16.775 11.0417 17.4167 11.1833V9.91667C16.7583 9.79167 16.05 9.71667 15.3333 9.71667C13.9167 9.71667 12.6333 9.96667 11.5833 10.4083Z" fill="#484848"/>
<path d="M15.3333 11.9417C13.9167 11.9417 12.6333 12.1833 11.5833 12.6333V14.0167C12.525 13.4833 13.8333 13.1917 15.3333 13.1917C16.0667 13.1917 16.775 13.2667 17.4167 13.4083V12.1417C16.7583 12.0083 16.05 11.9417 15.3333 11.9417Z" fill="#484848"/>
</g>
<defs>
<clipPath id="clip0_718_26">
<rect width="20" height="20" fill="white" transform="translate(0.75)"/>
</clipPath>
</defs>
</svg>
