<svg width="20" height="20" viewBox="0 0 20 20" fill="none" xmlns="http://www.w3.org/2000/svg">
<g clip-path="url(#clip0_197_29)">
<path d="M10 1.66666C5.85833 1.66666 2.5 5.02499 2.5 9.16666C2.5 12.6417 4.86667 15.5583 8.075 16.4083L10 18.3333L11.925 16.4083C15.1333 15.5583 17.5 12.6417 17.5 9.16666C17.5 5.02499 14.1417 1.66666 10 1.66666ZM10 3.33332C11.3833 3.33332 12.5 4.44999 12.5 5.83332C12.5 7.21666 11.3833 8.33332 10 8.33332C8.61667 8.33332 7.5 7.21666 7.5 5.83332C7.5 4.44999 8.61667 3.33332 10 3.33332ZM10 15.25C7.91667 15.25 6.075 14.1833 5 12.5667C5.025 10.9083 8.33333 9.99999 10 9.99999C11.6583 9.99999 14.975 10.9083 15 12.5667C13.925 14.1833 12.0833 15.25 10 15.25Z" fill="#484848"/>
</g>
<defs>
<clipPath id="clip0_197_29">
<rect width="20" height="20" fill="white"/>
</clipPath>
</defs>
</svg>
